<?xml version="1.0" encoding="utf-8"?>
<!-- Generator: Adobe Illustrator 27.5.0, SVG Export Plug-In . SVG Version: 6.00 Build 0)  -->
<svg version="1.1" xmlns="http://www.w3.org/2000/svg" xmlns:xlink="http://www.w3.org/1999/xlink" x="0px" y="0px"
	 viewBox="0 0 750 500" style="enable-background:new 0 0 750 500;" xml:space="preserve">
<g id="BACKGROUND">
</g>
<g id="OBJECTS">
	<g>
		<path style="opacity:0.5;fill:#C1C1C1;" d="M536.301,407.292c0,7.244-32.284,13.117-72.107,13.117
			c-39.824,0-72.107-5.873-72.107-13.117c0-7.245,32.283-13.118,72.107-13.118C504.017,394.174,536.301,400.047,536.301,407.292z"/>
		<g>
			<path style="fill:#C95100;" d="M506.623,119.158c0,0-3.297,15.593-0.915,44.869c2.38,29.275-13.972,57.969-42.231,57.055
				c-28.262-0.915-25.335-88.465-25.335-88.465l40.08-28.361L506.623,119.158z"/>
			<path style="fill:#AF4B00;" d="M425.756,109.659c2.13-9.368,6.401-20.956,40.554-19.736c34.153,1.22,45.861,15.237,38.483,43.603
				l-9.487,3.731l-11.775,4.63L425.756,109.659z"/>
			<rect x="429.931" y="77.369" style="fill:#FFB43B;" width="62.164" height="26.886"/>
			<path style="fill:#E5941F;" d="M500.083,90.813c0,7.424-4.087,13.442-9.129,13.442s-9.129-6.019-9.129-13.442
				c0-7.425,4.087-13.444,9.129-13.444S500.083,83.388,500.083,90.813z"/>
			<path style="fill:#E5941F;" d="M420.883,92.54h60.942l9.129,11.716h-59.931C431.023,104.255,422.19,105.83,420.883,92.54z"/>
			<path style="fill:#FFB43B;" d="M439.059,90.813c0,7.424-4.086,13.442-9.128,13.442c-5.041,0-9.13-6.019-9.13-13.442
				c0-7.425,4.089-13.444,9.13-13.444C434.973,77.369,439.059,83.388,439.059,90.813z"/>
			<path style="fill:#AF4B00;" d="M426.308,108.003c1.882-5.554,8.134-8.158,20.828-8.507c12.693-0.349,32.151,3.726,38.538,10.089
				c9.607,9.572,10.793,27.984,10.669,44.682c-0.148,20.139,1.54,46.766-4.248,54.646c0,0,2.094-0.807-2.938,2.853
				C484.125,215.425,426.308,108.003,426.308,108.003z"/>
			<path style="fill:#FFB43B;" d="M468.791,59.745c-0.359,3.637-13.159,5.349-28.588,3.824c-15.43-1.526-27.646-5.708-27.287-9.346
				c0.358-3.637,13.158-5.349,28.589-3.824C456.935,51.924,469.15,56.109,468.791,59.745z"/>
			<path style="fill:#FFB43B;" d="M463.08,44.257c-0.259,2.604-9.419,3.828-20.463,2.737c-11.041-1.091-19.784-4.086-19.527-6.688
				c0.258-2.604,9.418-3.828,20.459-2.737C454.592,38.66,463.336,41.654,463.08,44.257z"/>
			<path style="fill:#FFA383;" d="M432.479,233.498c6.179,3.083,6.316,9.315,7.934,13.087c1.106,2.56,3.424,5.163,0.924,4.892
				c-4.488-0.474-5.645-7.368-5.645-7.368s-1.163,0.998-0.913,2.766c0.418,3.064,5.597,8.248,6.794,11.087
				c1.271,3.022-5.928,2.086-9.416-0.72c-6.337-4.697-9.146-15.186-9.393-16.159c-0.535-2.097-2.153-8.026-2.153-8.026l9.641-10.684
				C430.251,222.373,431.5,232.971,432.479,233.498z"/>
			<path style="fill:#EDEDED;" d="M416.904,110.958c-5.092,3.617-9.338,6.497-8.881,38.646c0.211,15.286,2.642,52.879,6.867,73.21
				c0.177,0.845,1.933,1.888,2.094,2.664c1.002,4.745,1.758,8.055,2.117,9.169c1.044,3.259,13.996-0.992,13.276-4.241
				c-0.218-0.976-0.62-3.853-1.13-7.919c-0.104-0.863,0.794-1.542,0.679-2.507c-2.421-19.927-5.646-67.693-5.646-67.693
				l1.181-17.033L416.904,110.958z"/>
			<path style="fill:#EDEDED;" d="M431.881,220.553c-8.733,3.552-16.99,2.261-16.99,2.261l2.094,2.664
				C416.984,225.477,427.169,225.469,431.881,220.553z"/>
			<path style="fill:#EDEDED;" d="M419.801,386.189c0,0,0.555,2.365-1.319,10.054c-1.879,7.69,19.338,9.179,20.006,4.024
				c0.716-5.444-0.821-14.128-0.647-16.11C438.004,382.279,419.801,386.189,419.801,386.189z"/>
			<path style="fill:#1F324F;" d="M439.758,396.769c0.057,0.955,0.103,2.116,0.065,2.896c-0.06,1.069,0.525,8.179,0.712,12.479
				c0.08,1.956-0.229,2.964-2.548,3.227c-6.963,0.795-25.849,1.355-30.216,1.355c-5.321,0-10.384-0.361-11.4-2.434
				c-0.737-1.503-1.236-5.016-0.143-6.968c1.371-2.432,5.701-3.477,11.113-5.149c5.25-1.622,5.385-4.155,8.544-7.512
				c1.87-1.983,4.812-1.952,7.419-0.423c1.306,0.768,4.714,4.576,7.733,4.841c3.986,0.352,6.485-1.549,7.702-2.849
				C439.351,395.584,439.699,395.831,439.758,396.769z"/>
			<g>
				<path style="fill:#EDEDED;stroke:#EDEDED;stroke-miterlimit:10;" d="M433.426,410.036l-12.773-0.118
					c0,0-7.22,0.066-12.893,0.255c-1.318-3.795-3.578-6.73-5.113-6.555c-6.353,0.735-7.081,5.75-6.816,4.43
					c-0.584,1.852-0.055,5.031,0.541,6.244c1.017,2.072,6.079,2.434,11.4,2.434c4.367,0,23.253-0.561,30.216-1.355
					c2.318-0.263,2.628-1.27,2.548-3.227c-0.039-0.873-0.092-3.049-0.154-4.072C440.496,409.906,433.426,410.036,433.426,410.036z"
					/>
			</g>
			<path style="fill:none;stroke:#FFFFFF;stroke-width:0.5;stroke-linecap:round;stroke-linejoin:round;stroke-miterlimit:10;" d="
				M416.627,401.912c0,0-3.66-1.453-6.44-1.123"/>
			<path style="fill:none;stroke:#FFFFFF;stroke-width:0.5;stroke-linecap:round;stroke-linejoin:round;stroke-miterlimit:10;" d="
				M416.627,398.983c0,0-2.299-0.856-4.004-0.453"/>
			
				<path style="fill:#FFFFFF;stroke:#FFFFFF;stroke-width:0.5;stroke-linecap:round;stroke-linejoin:round;stroke-miterlimit:10;" d="
				M431.004,404.505c0,1.539,1.199,2.787,2.686,2.787c1.486,0,2.689-1.248,2.689-2.787c0-1.545-1.203-2.793-2.689-2.793
				C432.203,401.712,431.004,402.96,431.004,404.505z"/>
			<path style="fill:#EDEDED;" d="M491.057,379.421c0,0,3.961,4.096,4.465,9.871c0.496,5.775,14.315-0.209,14.275-2.126
				c-0.054-1.922-1.8-8.839-4.998-14.221C501.604,367.561,491.057,379.421,491.057,379.421z"/>
			<path style="fill:#1F324F;" d="M493.603,390.701c0.16,5.775-11.152,11.155-6.457,19.722c0.514,0.936,1.525,2.857,2.48,3.318
				c2.842,1.386,14.145-5.24,17.371-6.966c4.647-2.47,1.572,0.31,4.409-3.004c2.797-3.273,5.141-9.289,6.858-11.879
				c-4.346-4.774-7.091-10.645-9.261-11.888c-1.701-0.978-0.798,7.852-7.729,4.883C496.715,382.928,493.121,383.505,493.603,390.701
				z"/>
			<g>
				
					<path style="fill:#EDEDED;stroke:#EDEDED;stroke-width:0.2;stroke-linecap:round;stroke-linejoin:round;stroke-miterlimit:10;" d="
					M509.708,401.129c-2.987,2.977-5.883,5.04-8.565,6.418c-2.047,1.058-4.014-7.36-10.831-6.138
					c-5.96,1.067-4.023,6.783-4.479,5.658c0.147,0.7,0.936,2.716,1.315,3.355c0.547,0.917,0.912,1.892,1.66,2.656
					c6.065,6.166,21.506-6.709,26.282-13.232c5.716-7.814,3.177-7.954,1.302-10.193C517.152,390.642,513.916,396.94,509.708,401.129
					z"/>
			</g>
			<path style="fill:#1F324F;" d="M448.608,259.321c5.169,18.889,15.777,56.886,17.39,62.88
				c2.139,7.936,21.916,55.665,23.942,59.391c2.025,3.722,18.432-7.157,17.691-11.416c-0.745-4.255-1.249-6.827-6.064-29.042
				c-4.307-19.855-11.429-29.881-12.028-34.191c-4.293-30.838-2.068-66.883-7.423-85.889c0,0-30.118,9.203-64.574,3.378
				c-4.698,35.998-5.102,68.896-4.992,91.511c0.058,11.706,3.914,50.613,4.212,71.387c0.354,1.531,23.826,0.704,23.782-2.401
				c-0.549-41.544,2.514-46.412,0-71.856L448.608,259.321z"/>
			<g>
				<polygon style="fill:none;" points="416.434,405.071 416.434,405.071 416.434,405.071 				"/>
			</g>
			<path style="fill:#EDEDED;" d="M441.448,102.759l17.843,0.285l20.123,7.914l2.103,41.991l2.608,62.476l-1.734,3.413
				c0,0,0.683,1.892,1.734,6.051c1.051,4.162-57.078,5.998-67.364,0.665c1.202-4.545,1.69-6.38,1.69-6.38l-1.69-4.504l0.144-103.712
				l15.427-4.846L441.448,102.759z"/>
			<path style="fill:#EDEDED;" d="M466.718,105.965c0,5.392-6.932,12.86-17.794,13.184c-14.092,0.424-16.593-13.036-16.593-13.036
				l2.899-1.064l6.218-2.289l17.843,0.285L466.718,105.965z"/>
			<path style="fill:#EDEDED;" d="M416.123,160.07l6.538-23.877c0,0-2.094,11.644-3.27,25.153
				c-1.733,19.886-2.757,45.065-2.631,53.325L416.123,160.07z"/>
			<path style="fill:#EDEDED;" d="M481.517,152.949l-3.397-16.757c0,0,4.913,70.326,6.006,79.233L481.517,152.949z"/>
			<path style="fill:#EDEDED;" d="M484.125,215.425c0,0-28.076,4.706-67.364-0.755l1.69,4.504c0,0,33.643,4.717,63.853,1.283
				L484.125,215.425z"/>
			<path style="fill:#FFA383;" d="M456.351,78.299c0,9.208-2.551,15.752,0.702,21.839c0,0,2.949,3.319,5.75,4.189
				c0,0-2.18,11.816-14.975,11.375c-0.625-0.02-3.674-0.528-4.449-0.837c-6.255-2.452-8.005-8.532-7.988-9.877l3.53-1.517
				c0,0,0.613-2.28-1.731-7.226c-2.35-4.949,5.35-17.041,5.35-17.041L456.351,78.299z"/>
			<path style="fill:#E5886E;" d="M437.858,97.557c2.923-0.222,12.251-8.791,12.669-10.7c0.417-1.91,1.518-5.777,1.518-5.777
				s-0.272,9.92-2.949,14.974c-4.004,7.561-10.371,4.453-10.371,4.453S438.043,98.577,437.858,97.557z"/>
			<path style="fill:#FFA383;" d="M458.657,69.507c0.206,9.143-7.041,16.719-16.178,16.925c-9.149,0.206-16.972-7.92-17.176-17.064
				c-0.046-1.97-0.274-5.169,0.319-6.934c3.596-10.727,19.828-14.003,29.078-5.055C457.928,60.505,458.563,65.389,458.657,69.507z"
				/>
			<path style="fill:#FFA383;" d="M425.861,73.088c0.105,1.298,1.025,2.525,1.48,3.972c0.367,1.162,0.164,4.924,1.016,7.354
				c2.094,5.976,6.433,12.256,11.174,12.942c3.671,0.533,12.331-5.987,12.655-12.095c0.323-6.109,0.638-12.781,0.638-12.781"/>
			<path style="fill:#1F324F;" d="M427.758,78.538c0.237,1.191,1.146,2.017,2.033,1.84c0.889-0.177,1.416-1.285,1.173-2.475
				c-0.232-1.199-1.137-2.024-2.023-1.85C428.05,76.232,427.522,77.343,427.758,78.538z"/>
			<path style="fill:#1F324F;" d="M439.47,76.702c0.163,1.205,1.021,2.083,1.919,1.966c0.896-0.121,1.487-1.198,1.326-2.403
				c-0.158-1.207-1.012-2.086-1.908-1.966C439.915,74.418,439.31,75.494,439.47,76.702z"/>
			<path style="fill:#E5886E;" d="M432.619,86.031c0.315,0.121,1.984,0.556,2.496,0.415c0.518-0.131,2.648-1.192,2.743-1.469
				C437.953,84.706,432.026,85.809,432.619,86.031z"/>
			<g>
				<path style="fill:#1F324F;" d="M438.345,71.066c-0.009,0.014,0.058-0.124,0.179-0.287c0.12-0.17,0.313-0.391,0.589-0.609
					c0.272-0.224,0.638-0.426,1.061-0.582c0.428-0.143,0.915-0.221,1.4-0.204c0.487,0,0.958,0.123,1.376,0.261
					c0.407,0.169,0.764,0.356,1.032,0.563c0.281,0.191,0.461,0.404,0.603,0.531c0.13,0.141,0.203,0.222,0.203,0.222
					c0.189,0.207,0.175,0.527-0.032,0.716c-0.137,0.125-0.322,0.161-0.487,0.112l-0.072-0.022c0,0-0.092-0.027-0.252-0.076
					c-0.153-0.051-0.362-0.151-0.624-0.203c-0.25-0.087-0.541-0.143-0.838-0.208c-0.151-0.009-0.302-0.04-0.455-0.056
					c-0.154,0.01-0.308-0.017-0.46-0.007c-0.305,0.015-0.607,0.052-0.891,0.114c-0.286,0.057-0.563,0.124-0.802,0.199
					c-0.245,0.065-0.452,0.14-0.603,0.184c-0.151,0.05-0.222,0.056-0.232,0.068c-0.198,0.192-0.515,0.188-0.707-0.011
					C438.142,71.575,438.147,71.258,438.345,71.066z"/>
			</g>
			<g>
				<path style="fill:#1F324F;" d="M429.734,72.596c0,0-0.02-0.003-0.057-0.008c-0.048-0.015-0.085-0.004-0.09,0.015
					c0.008,0.012-0.081,0.017-0.146,0.026c-0.076,0.013-0.162,0.028-0.256,0.044c-0.383,0.059-0.895,0.211-1.326,0.413
					c-0.44,0.207-0.771,0.475-1.02,0.72c-0.105,0.133-0.226,0.241-0.282,0.337c-0.065,0.09-0.118,0.141-0.118,0.141
					c-0.077,0.265-0.354,0.418-0.619,0.341c-0.266-0.077-0.418-0.354-0.342-0.619c0.02,0.007-0.029-0.384,0.227-0.916
					c0.124-0.262,0.314-0.556,0.581-0.812c0.271-0.241,0.594-0.465,0.94-0.601c0.688-0.313,1.412-0.339,1.944-0.294
					c0.136,0.012,0.259,0.042,0.371,0.065c0.12,0.032,0.194,0.047,0.331,0.094c0.128,0.043,0.192,0.083,0.208,0.101
					c0.03,0.021,0.046,0.032,0.046,0.032c0.23,0.164,0.285,0.483,0.121,0.713c-0.114,0.162-0.307,0.237-0.49,0.21L429.734,72.596z"
					/>
			</g>
			<path style="fill:#FFFFFF;" d="M434.228,90.163c0.168-0.511,7.241-1.366,7.764-1.165c0.521,0.203-1.82,3.267-3.407,3.526
				C437.353,92.724,434.026,90.771,434.228,90.163z"/>
			<path style="fill:#1F324F;" d="M451.92,76.229c0.904-3.748-1.28-10.962-3.713-12.378c-2.426-1.424,0.979-6.257-0.866-7.248
				c-1.845-0.995-10.813,8.238-17.265,9.092c-6.461,0.852-11.366-3.693-10.053-9.092c0.607-2.271,2.117,2.431,4.514-0.995
				c3.843-5.494,23.075-14.349,28.907-2.557c0,0,6.259,0,6.117,7.386c-0.142,7.39-0.901,15.387-0.901,15.387L451.92,76.229z"/>
			<path style="fill:#1F324F;" d="M428.951,86.854c2.238,0.039,2.146-3.062,4.967-4.088c2.924-1.065,6.336,2.646,9.443,0.601
				c2.57-1.692,4.652-4.099,4.652-4.099l3.486,4.244c0,0-0.8,7.778-5.117,12.307c-3.931,4.125-8.806,2.691-11.598,0.242
				C431.99,93.609,428.982,88.238,428.951,86.854z"/>
			<path style="fill:#1F324F;" d="M448.014,79.267l7.005-6.998l0.318,0.213c0,0-6.508,7.973-6.818,8.207
				C448.198,80.917,448.014,79.267,448.014,79.267z"/>
			<polygon style="fill:#1F324F;" points="455.738,82.277 451.018,83.83 450.379,83.054 455.337,81.701 			"/>
			<path style="fill:#E5886E;" d="M459.208,76.462c-0.322,2.955-2.525,6.783-4.745,5.696c-0.407-0.202-0.688-0.824-0.85-1.67
				c-0.08-0.415,0.692-1.311,0.669-1.81c-0.024-0.519-0.843-0.642-0.808-1.201c0.155-2.592,0.923-5.331,2.186-5.615
				C458.169,71.299,459.537,73.502,459.208,76.462z"/>
			<polygon style="fill:#C1C1C1;" points="448.608,259.321 445.94,252.573 442.918,298.849 			"/>
			<path style="fill:none;stroke:#FFFFFF;stroke-width:0.5;stroke-linecap:round;stroke-linejoin:round;stroke-miterlimit:10;" d="
				M492.009,395.006c0.177-0.282,3.466-1.69,6.794-0.677"/>
			<path style="fill:none;stroke:#FFFFFF;stroke-width:0.5;stroke-linecap:round;stroke-linejoin:round;stroke-miterlimit:10;" d="
				M493.603,390.701c0,0,0.813-0.984,4.328-0.401"/>
			<path style="fill:#FFA383;" d="M475.604,234.423c-5.857,3.664-5.396,9.874-6.649,13.785c-0.854,2.66-2.915,5.463-0.452,4.962
				c4.425-0.902,4.918-7.877,4.918-7.877s1.25,0.881,1.171,2.67c-0.124,3.085-4.782,8.742-5.704,11.68
				c-0.979,3.13,6.099,1.514,9.307-1.608c5.858-5.285,7.654-15.996,7.806-16.989c0.332-2.137,1.379-8.193,1.379-8.193l-10.617-9.711
				C476.762,223.141,476.528,233.804,475.604,234.423z"/>
			<path style="fill:#EDEDED;" d="M479.414,110.958c5.416,3.112,9.916,5.578,12.529,37.622c1.247,15.237,2.416,52.891,0.151,73.528
				c-0.097,0.862-1.744,2.068-1.831,2.856c-0.543,4.82-0.979,8.186-1.233,9.329c-0.729,3.34-14.025,0.345-13.618-2.957
				c0.123-0.992,0.251-3.891,0.368-7.991c0.02-0.868-0.94-1.459-0.916-2.429c0.51-20.064-0.837-67.923-0.837-67.923l-2.801-16.842
				L479.414,110.958z"/>
			<path style="fill:#EDEDED;" d="M474.966,221.484c9.034,2.699,17.129,0.624,17.129,0.624l-1.831,2.856
				C490.264,224.963,480.125,225.925,474.966,221.484z"/>
			<path style="fill:#EDEDED;" d="M474.943,216.482l-0.916-63.491l-2.801-11.105c-0.537,8.856,0.059,23.798,0.372,32.478
				c0.049,1.354-13.096-9.976-1.101-56.626c-5.56,42.133,0.693,49.465,0.729,50.141
				C471.969,181.914,473.496,202.234,474.943,216.482z"/>
			<path style="fill:#FFB43B;" d="M423.09,40.306l-1.329,12.606l3.463,2.169c0,0,2.073-5.68,17.196-4.079
				c15.121,1.601,17.146,8.92,17.146,8.92l1.571-1.766l1.943-13.9L423.09,40.306z"/>
			<path style="fill:#AF4B00;" d="M461.938,52.533c-0.054,0.41-0.288,1.951-0.288,1.951c-11.426-4.511-24.233-6.455-39.615-4.17
				c0,0,0.081-1.277,0.138-1.71c0.228-1.767,9.367-3.833,20.347-2.748C453.5,46.941,462.129,51.054,461.938,52.533z"/>
			<path style="fill:#C95100;" d="M466.718,105.965c-5.31,7.776-19.011,65.686,7.978,80.323l-0.457-8.462
				c0,0-10.561-8.589-8.506-32.478c2.254-26.189,8.132-36.572,8.132-36.572S470.578,104.255,466.718,105.965z"/>
			<path style="fill:#C95100;" d="M434.67,105.209c-1.634,5.137,3.387,53.176-17.395,81.05l1.053-10.827
				c0,0,5.863-12.152,7.534-31.456c1.572-18.171,2.134-36.502,2.134-36.502C428.338,105.554,433.79,104.416,434.67,105.209z"/>
			<path style="fill:none;stroke:#161616;stroke-width:2;stroke-linecap:round;stroke-linejoin:round;stroke-miterlimit:10;" d="
				M435.815,103.665c-3.771,2.745-9.507,53.668-9.507,53.668h20.333c0,0,16.802-50.7,15.732-53.668"/>
			<path style="fill:none;stroke:#1F324F;stroke-linecap:round;stroke-linejoin:round;stroke-miterlimit:10;" d="M492.16,103.905
				c-6.317-0.61-10.814-7.538-10.049-15.475c0.574-5.952,4.881-10.407,9.617-9.95c3.552,0.344,6.082,4.239,5.65,8.705
				c-0.322,3.348-2.744,5.854-5.408,5.597c-1.998-0.192-3.422-2.384-3.179-4.896c0.181-1.884,1.544-3.293,3.042-3.148
				c1.123,0.109,1.925,1.342,1.789,2.754c-0.102,1.059-0.868,1.852-1.712,1.772c-0.632-0.061-1.083-0.756-1.007-1.549
				c0.059-0.596,0.49-1.043,0.963-0.997"/>
			<path style="fill:#EDEDED;" d="M458.503,143.9c-0.884,14.18-3.511,32.214,14.043,44.523l-0.205-3.593
				c0,0-8.184-4.713-11.328-17.72C457.869,154.104,458.503,143.9,458.503,143.9z"/>
			<path style="fill:#EDEDED;" d="M417.572,188.423c0,0,4.587-1.526,7.679-9.607c0,0,28.967,0.304,30.21,0.152
				c1.244-0.151,3.034,0.091,2.977-2.623c-0.057-2.713-0.478-14.904-0.478-14.904l-2.968-4.109l-31.606,18.775
				c0,0-4.372,8.443-6.111,10.15L417.572,188.423z"/>
			<g>
				<g>
					<path style="fill:#1F324F;" d="M453.982,175.114c0,0.55-0.45,1-1,1h-28.771c-0.55,0-1-0.45-1-1v-18.47c0-0.55,0.45-1,1-1h4.799
						c0.55,0,1.246-0.377,1.546-0.837l0.852-1.305c0.3-0.46,0.996-0.837,1.546-0.837h8.622c0.55,0,1.324,0.312,1.72,0.694
						l1.534,1.478c0.396,0.382,1.17,0.694,1.72,0.694h6.434c0.55,0,1,0.45,1,1V175.114z"/>
				</g>
				<g>
					<path style="fill:#161616;" d="M450.607,175.114c0,0.55-0.45,1-1,1h-28.77c-0.55,0-1-0.45-1-1v-18.47c0-0.55,0.45-1,1-1h4.798
						c0.55,0,1.246-0.377,1.546-0.837l0.852-1.305c0.3-0.46,0.996-0.837,1.546-0.837h8.622c0.55,0,1.324,0.312,1.72,0.694
						l1.534,1.478c0.395,0.382,1.17,0.694,1.72,0.694h6.433c0.55,0,1,0.45,1,1V175.114z"/>
				</g>
				<path style="fill:#1F324F;" d="M440.689,165.87c0,1.753-0.376,3.383-1.019,4.739c-1.085,2.29-2.935,3.797-5.036,3.797
					c-3.345,0-6.055-3.822-6.055-8.536c0-4.715,2.71-8.537,6.055-8.537C437.978,157.333,440.689,161.155,440.689,165.87z"/>
				<rect x="428.301" y="157.333" style="fill:#1F324F;" width="6.924" height="17.032"/>
				<rect x="415.555" y="157.333" style="fill:#1F324F;" width="2.929" height="17.035"/>
				<path style="fill:#161616;" d="M434.356,165.87c0,1.594-0.311,3.087-0.851,4.365c-1.057,2.498-2.992,4.172-5.205,4.171
					c-3.344,0-6.055-3.822-6.055-8.536c0-4.715,2.711-8.537,6.055-8.537C431.646,157.333,434.356,161.155,434.356,165.87z"/>
				<path style="fill:#1F324F;" d="M431.197,165.87c0,4.217-2.426,7.636-5.416,7.636c-2.992,0-5.417-3.42-5.417-7.636
					c0-4.217,2.425-7.637,5.417-7.637C428.772,158.232,431.197,161.652,431.197,165.87z"/>
				<path style="fill:#1F324F;" d="M425.531,165.87c0,4.217-2.424,7.636-5.416,7.636c-2.991,0-5.416-3.42-5.416-7.636
					c0-4.217,2.425-7.637,5.416-7.637C423.107,158.232,425.531,161.652,425.531,165.87z"/>
				<rect x="420.115" y="158.232" style="fill:#1F324F;" width="6.192" height="15.236"/>
				<path style="fill:#161616;" d="M422.361,167.88h9.402c0,0-0.344,4.079-4.701,6.023l-1.47-0.397l-4.847-0.037l0.473-3.645
					L422.361,167.88z"/>
				<path style="fill:#1F324F;" d="M422.272,165.87c0,4.714-2.71,8.536-6.055,8.536c-3.343,0-6.054-3.822-6.054-8.536
					c0-4.715,2.711-8.537,6.054-8.537C419.563,157.333,422.272,161.155,422.272,165.87z"/>
				<path style="fill:#1F324F;" d="M424.045,165.87c0,4.714-2.711,8.536-6.055,8.536c-3.344,0-6.054-3.822-6.054-8.536
					c0-4.715,2.71-8.537,6.054-8.537C421.334,157.333,424.045,161.155,424.045,165.87z"/>
				<path style="fill:#1F324F;" d="M421.357,165.87c0,4.001-2.3,7.246-5.14,7.246c-2.838,0-5.14-3.245-5.14-7.246
					c0-4.002,2.302-7.247,5.14-7.247C419.058,158.623,421.357,161.867,421.357,165.87z"/>
				<path style="fill:#161616;" d="M433.195,170.892h6.33c0,0-1.668,3.556-4.813,3.514h-6.411L433.195,170.892z"/>
				<path style="fill:#161616;" d="M421.414,165.87c0,3.312-1.905,5.997-4.255,5.997c-2.348,0-4.252-2.686-4.252-5.997
					c0-3.313,1.904-5.997,4.252-5.997C419.509,159.872,421.414,162.557,421.414,165.87z"/>
				<path style="fill:#1F324F;" d="M453.924,176.114h-6.766v-20.585h6.634c0,0,1.2-0.019,1.2,1.201c0,1.033,0,14.235,0,18.24
					C454.992,175.999,453.924,176.114,453.924,176.114z"/>
				<path style="fill:#161616;" d="M454.992,175.085h-8.101v1.029c0,0,6.008,0,7.032,0
					C454.949,176.114,454.992,175.085,454.992,175.085z"/>
			</g>
			<path style="fill:#EDEDED;" d="M434.356,110.958c0.656,13.577,1.034,28.786-1.503,41.706h-1.925
				C430.929,152.664,433.913,144.662,434.356,110.958z"/>
			<path style="fill:#EDEDED;" d="M417.274,226.84c8.324,6.259,43.015,6.112,58.224,3.517l0.144-2.878c0,0-14.257,1.96-36.173,1.213
				c-14.498-0.496-22.108-2.859-22.108-2.859L417.274,226.84z"/>
		</g>
	</g>
	<g>
		<path style="opacity:0.5;fill:#C1C1C1;" d="M685.465,446.416c0,7.244-72.323,13.117-161.537,13.117
			c-89.215,0-161.537-5.873-161.537-13.117c0-7.245,72.322-13.118,161.537-13.118C613.142,433.298,685.465,439.171,685.465,446.416z
			"/>
		<g>
			<g>
				<path style="fill:#0E263F;" d="M691.223,179.691c-0.548,0.049-0.75-0.288-0.449-0.747l11.756-17.988
					c0.301-0.46,0.995-0.877,1.543-0.925l11.149-0.989c0.548-0.048,0.748,0.287,0.444,0.746l-11.892,17.993
					c-0.304,0.459-1,0.874-1.548,0.924L691.223,179.691z"/>
			</g>
			<path style="fill:#FFAF99;" d="M689.448,186.374c0,0-24.366,15.091-31.009,17.749c-2.045-17.229-6.475-30.294-6.475-30.294
				l-13.553,10.017c0,0,5.229,34.241,7.297,41.303c2.068,7.064,40.966-26.119,40.966-26.119L689.448,186.374z"/>
			<path style="fill:#FFAF99;" d="M509.33,243.925c0,0-1.545-0.464-3.539,0.582c-2.828,1.481-4.324,2.902-3.604,4.264
				c-2.96,1.773-4.907-5.695-3.001-8.131c2.308-2.951,10.515-7.978,11.49-8.41c2.103-0.935,9.215-2.551,13.975-4.72
				c5.577-2.541,7.268,7.739,7.268,7.739s-11.616,2.579-12.027,3.53"/>
			<g>
				<path style="fill:#4FC9B8;" d="M455.883,441.178c-0.377,1.033-1.585,1.853-2.685,1.82c0,0-8.752-0.257-18.39-4.54
					c-7.361-3.272-12.07-5.241-5.857-24.023c7.86-23.757,20.589-61.851,27.701-82.374c7.49-21.611,21.617-25.334,27.426-24.777
					c11.181,1.072,15.732,8.971,15.732,8.971c0.55,0.953,0.691,2.578,0.314,3.611L455.883,441.178z"/>
			</g>
			<path style="fill:#0E263F;" d="M463.512,439.853c-1.656,4.777-5.807,8.651-9.271,8.651c-3.463,0-4.928-3.874-3.272-8.651
				c1.655-4.778,5.806-8.651,9.271-8.651C463.701,431.202,465.168,435.075,463.512,439.853z"/>
			<polygon style="fill:#0E263F;" points="454.709,448.505 452.079,448.505 458.076,431.202 460.706,431.202 			"/>
			<path style="fill:#0E263F;" d="M461.35,439.853c-1.655,4.777-5.809,8.651-9.271,8.651c-3.466,0-4.932-3.874-3.274-8.651
				c1.656-4.778,5.806-8.651,9.272-8.651C461.539,431.202,463.006,435.075,461.35,439.853z"/>
			<path style="fill:#FFAF99;" d="M519.891,238.778c0,0,47.403-8.488,54.395-18.348c2.287-3.224,14.212-33.392,14.212-33.392
				l-19.684,3.043c0,0-3.895,14.132-6.255,22.299c-13.977,6.1-40.111,16.038-40.111,16.038L519.891,238.778z"/>
			<path style="fill:#EDA11B;" d="M591.285,153.129l3.632,25.985L583.9,209.527c0,0-21.061-4.286-19.504-9.357
				C572.382,174.165,576.619,158.557,591.285,153.129z"/>
			<path style="fill:#FFFFFF;" d="M634.387,424.57c0,0-0.499,2.128,1.186,9.034c1.683,6.907-17.376,8.246-17.977,3.614
				c-0.638-4.89,0.739-12.695,0.582-14.474C618.029,421.059,634.387,424.57,634.387,424.57z"/>
			<path style="fill:#FFFFFF;" d="M570.602,423.403c0,0-2.977,4.163-2.657,9.362c0.318,5.198-12.754,1.707-12.967,0
				c-0.209-1.713,0.424-8.092,2.552-13.297C559.658,414.263,570.602,423.403,570.602,423.403z"/>
			<path style="fill:#0E263F;" d="M569.454,432.409c0.188,6.51,6.575,9.626,6.326,14.603c-0.046,0.959-0.009,2.911-0.567,3.68
				c-1.678,2.294-5.669,2.578-8.955,2.569c-4.731-0.01-9.595-0.354-13.239-1.792c-6.1-2.402,0.065-13.854,0.403-19.305
				C553.705,427.572,569.263,425.894,569.454,432.409z"/>
			<path style="fill:#0E263F;" d="M613.488,295.862c-3.938,17.068-16.412,49.917-20.93,57.17
				c-3.513,5.635-12.884,49.988-18.559,63.827c-0.277,0.671,0.106,2.556-0.184,3.134c-1.398,2.803-2.364,4.712-2.683,5.322
				c-1.972,3.772-16.265-1.059-15.585-5.344c0.095-0.598,0.886-3.149,1.488-5.316c0.178-0.646,1.369-1.477,1.586-2.234
				c4.219-14.884,5.056-56.985,14.313-69.112c8.924-46.401,5.275-66.202,11.377-87.467c0,0,2.162,0.69,9.364,2.261
				c19.659,4.291,37.65,1.454,39.582,1.257c2.592-0.261,5.267-0.593,8.018-1.005c4.062,36.23,3.729,72.162,2.898,87.952
				c-0.379,7.151-5.163,46.933-8.211,67.772c-0.112,0.771,0.959,1.415,0.854,2.14c-0.431,3.005-0.644,6.996-0.889,9.037
				c-0.172,3.541-18.827,2.715-18.334-0.368c0.401-2.523-0.514-5.341-0.232-7.904c0.06-0.57,1.603-2.34,1.658-2.904
				c2.164-21.371-1.647-46.257,0.845-63.377L613.488,295.862z"/>
			<path style="fill:#0E263F;" d="M616.456,434.077c-0.053,0.858-0.096,1.9-0.058,2.601c0.054,0.961-0.473,7.351-0.639,11.215
				c-0.076,1.754,0.206,2.659,2.287,2.898c6.254,0.712,23.221,1.218,27.147,1.218c4.78,0,9.326-0.324,10.24-2.19
				c0.666-1.347,1.267-3.767-0.061-5.71c-1.414-2.072-4.93-3.672-9.795-5.171c-4.718-1.463-4.188-2.629-5.961-6.371
				c-0.941-1.982-4.665-1.869-10.222-1.318c-1.36,0.138-2.398,4.667-5.104,4.906c-3.585,0.315-5.83-1.389-6.923-2.559
				C616.822,433.012,616.506,433.233,616.456,434.077z"/>
			<polygon style="fill:#0E263F;" points="607.158,148.413 614.185,146.681 620.583,139.561 625.924,147.334 636.085,159.998 
				637.988,268.16 605,268.685 599.9,160.464 			"/>
			<path style="fill:#EDA11B;" d="M589.849,185.758c0,0-5.587,55.742-9.357,77.579c-0.378,2.176,65.103,6.604,64.653,3.78
				c-3.851-24.194-5.894-49.302-2.215-61.925c5.513-18.913,1.719-49.396,1.719-49.396c-3.663-2.226-21.442-8.412-21.442-8.412
				h-13.802c-2.726,0.894-19.611,4.864-23.162,8.09L589.849,185.758z"/>
			<g>
				
					<path style="fill:#FFFFFF;stroke:#FFFFFF;stroke-width:0.5;stroke-linecap:round;stroke-linejoin:round;stroke-miterlimit:10;" d="
					M622.144,447.071c0,0,0.612-4.431,5.6-4.431c4.988,0,5.875,4.321,5.875,4.321s5.044,0.279,10.142,0.445
					c4.715,0.151,12.479-0.538,12.163-2.125c0.521,1.666,0.045,3.447-0.49,4.536c-0.914,1.866-5.46,2.19-10.24,2.19
					c-3.926,0-20.893-0.506-27.147-1.218c-2.081-0.239-2.363-1.144-2.287-2.898c0.033-0.781,0.078-1.667,0.135-2.592
					C615.793,446.953,622.144,447.071,622.144,447.071z"/>
			</g>
			<g>
				
					<path style="fill:#FFFFFF;stroke:#FFFFFF;stroke-width:0.5;stroke-linecap:round;stroke-linejoin:round;stroke-miterlimit:10;" d="
					M561.533,447.076c5.49,0.569,14.207-0.06,14.011-1.983c0.178,0.617,0.271,1.251,0.236,1.92c-0.046,0.959-0.009,2.911-0.567,3.68
					c-1.678,2.294-5.669,2.578-8.955,2.569c-4.731-0.01-9.595-0.354-13.239-1.792c-2.979-1.173-3.025-4.512-2.261-8.252
					C550.569,444.323,556.231,446.521,561.533,447.076z"/>
			</g>
			<path style="fill:#C1C1C1;" d="M581.824,267.022c-0.662,4.344,50.832,5.338,60.513,1.842l-0.074-0.835
				c0,0-43.452-0.746-59.907-3.955L581.824,267.022z"/>
			<path style="opacity:0.5;fill:#C1C1C1;" d="M589.683,153.512c9.208,9.492,41.54,13.23,53.247,1.402l-2.153-0.946l-47.839-1.706
				L589.683,153.512z"/>
			<path style="fill:#FFAF99;" d="M624.175,124.059c-0.921,8.145,1.446,23.425,2.886,24.692l13.716,5.217
				c-7.448,6.037-35.224,9.268-48.519-1.48l14.337-4.798c0,0,1.37-5.247,1.565-8.961c0.292-5.56,0.267-15.396,0.267-15.396
				L624.175,124.059z"/>
			<path style="fill:#F29A86;" d="M625.195,141.435c-2.979-0.087-10.779-8.208-11.291-10.13c-0.516-1.92-2.013-4.119-2.013-4.119
				s-0.537,8.855,3.862,13.407c5.949,6.167,9.525,1.981,9.525,1.981L625.195,141.435z"/>
			<path style="fill:#FFAF99;" d="M604.838,114.058c0.221,9.295,7.926,16.658,17.224,16.44c9.296-0.215,16.868-8.829,16.65-18.126
				c-0.047-2.001,0.038-5.26-0.646-7.029c-4.153-10.728-20.789-13.302-29.768-3.783
				C605.164,104.878,604.747,109.873,604.838,114.058z"/>
			<path style="fill:#FFAF99;" d="M638.319,116.174c-0.32,8.885-4.854,23.771-12.759,25.283
				c-3.709,0.708-12.805-5.507-13.417-11.701c-0.61-6.188-1.238-12.946-1.238-12.946"/>
			<path style="fill:#0E263F;" d="M636.544,123.275c-0.185,1.219-1.072,2.102-1.985,1.963c-0.905-0.136-1.494-1.236-1.306-2.464
				c0.186-1.224,1.07-2.103,1.978-1.965C636.139,120.948,636.729,122.051,636.544,123.275z"/>
			<path style="fill:#0E263F;" d="M624.481,121.82c-0.108,1.228-0.941,2.162-1.856,2.082c-0.92-0.08-1.568-1.143-1.461-2.375
				c0.11-1.235,0.935-2.166,1.854-2.086C623.926,119.518,624.584,120.582,624.481,121.82z"/>
			<path style="fill:#F29A86;" d="M632.051,129.636c-0.314,0.136-1.989,0.653-2.515,0.534c-0.531-0.112-2.738-1.087-2.849-1.363
				C626.576,128.535,632.644,129.379,632.051,129.636z"/>
			<path style="fill:#FFFFFF;" d="M631.61,133.613c-0.192-0.513-7.413-1.054-7.939-0.821c-0.52,0.231,2.089,2.886,3.716,3.075
				C628.646,136.011,631.852,134.222,631.61,133.613z"/>
			<path style="fill:#0E263F;" d="M617.31,96.315c-1.987,1.018-3.044,0.128-4.58-1.24c-1.357-1.205-2.512-2.386-4.174-3.18
				c-2.259-1.077-5.191-1.832-7.679-1.943c-7.03-0.32-13.125,4.073-16.102,9.86c-3.445,6.701-4.524,14.57-0.497,23.399
				c2.093,4.585,7.227,9.763,8.978,10.161c0.784,0.177,1.633-0.194,0.428-1.831c-1.208-1.637-3.242-4.483-1.726-6.618
				c1.792-2.519,5.558-3.202,7.801-5.316c5.611-5.306-0.604-11.886,1.933-18.104c0.894-2.183,2.982-4.377,5.425-4.676
				c3.472-0.423,6.308,2.866,6.522,6.166"/>
			<path style="fill:#F29A86;" d="M638.631,114.437c-2.358,0.678-16.087-1.73-20.256-3.823c-1.213-0.55-3.547-0.675-4.31,5.142
				l-1.624-1.597l5.338-14.85l20.684,7.947L638.631,114.437z"/>
			<path style="fill:#0E263F;" d="M640.057,113.127c-0.629,0.203-1.356,0.035-3.131-0.077c-0.501-0.03-0.289-4.199-0.849-4.252
				c-0.288-0.027-1.324,4.067-1.628,4.035c-0.379-0.043-0.295-1.774-0.689-1.823c-0.476-0.062-1.176,1.019-1.666,0.946
				c-4.145-0.604-10.12-1.553-11.9-3.03c-0.275-0.229,0.261-6.354-0.044-6.486c-0.583-0.245-2.071,6.897-2.508,6.597
				c-1.186-0.812-2.928,0.544-3.457,5.613c-0.462,4.466-1.03,7.896-1.03,7.896l-1.503-1.78c0,0-0.74-5.097-3.294-5.235
				c-2.938-0.159-2.81,3.854-2.81,3.854l1.766,4.323c0,0-2.854-4.756-3.665-10.729c-1.217-8.979-1.114-16.973,9.955-20.211
				c5.089-1.49,12.262-1.46,18.186,1.183c4.59,2.047,6.992,4.402,8.543,8.748C641.905,107.091,640.057,113.127,640.057,113.127z"/>
			<path style="fill:#F29A86;" d="M565.002,203.916c0,0,3.235,6.147,13.175,8.744l1.826-4.04c0,0-11.508-3.111-14.644-5.949
				L565.002,203.916z"/>
			<path style="fill:#EDEDED;" d="M637.084,124.594c-0.53,2.869-3.273,4.853-5.62,2.641c-2.347-2.211-2.906-2.16-6.394,0.052
				c-3.489,2.211-8.869-3.149-9.912-4.152l-3.209,7.017c0.424,2.412,4.721,10.729,11.191,11.667
				c6.472,0.939,11.999-8.32,12.946-10.997C636.813,128.753,637.084,124.594,637.084,124.594z"/>
			<path style="fill:#DBDEE3;" d="M628.121,131.009c0,0-3.269,0.56-6.444-0.884"/>
			<path style="fill:#DBDEE3;" d="M631.521,133.999c0,0-4.407,1.001-8.988,0.007"/>
			<path style="fill:#DBDEE3;" d="M625.908,137.205c0,0-3.945,0.179-7.712-1.646"/>
			<path style="fill:#EDEDED;" d="M615.158,123.134l-7.161-6.824l0.077,1.05c0,0,6.603,7.394,6.603,7.549
				C614.676,125.064,615.158,123.134,615.158,123.134z"/>
			<polygon style="fill:#EDEDED;" points="611.949,130.151 608.626,124.938 609.043,124.542 613.213,129.509 			"/>
			<path style="fill:#F29A86;" d="M604.604,121.145c0.469,2.989,2.878,6.774,5.079,5.567c1.771-0.974,0.706-9.977-1.687-10.401
				C605.418,115.854,604.135,118.156,604.604,121.145z"/>
			<g>
				<path style="fill:#2DA591;" d="M456.879,442.197c-0.367,1.037-1.564,1.947-2.662,2.022l-47.017,3.23
					c-1.098,0.075-2.511-0.601-3.142-1.502l-2.819-4.027c-0.631-0.901-0.865-2.493-0.52-3.538l38.811-117.801
					c0.345-1.045,1.525-1.934,2.624-1.976l57.232-2.184c1.099-0.042,1.698,0.772,1.331,1.809L456.879,442.197z"/>
			</g>
			<g>
				<path style="fill:#4FC9B8;" d="M405.892,445.708c-0.378,1.033-1.534,1.578-2.571,1.21c0,0-8.866-3.149-18.504-7.434
					c-7.36-3.272-6.159-19.417,0.054-38.198c7.859-23.757,16.965-51.392,24.077-71.915c7.49-21.609,21.375-21.566,27.182-21.008
					c11.182,1.071,15.242,8.561,15.242,8.561c0.524,0.967,0.645,2.603,0.267,3.637L405.892,445.708z"/>
			</g>
			<path style="fill:#0E263F;" d="M458.605,350.804c-0.557,1.606-2.31,2.908-3.916,2.908c-1.605,0-2.457-1.302-1.9-2.908
				c0.557-1.605,2.309-2.906,3.916-2.906C458.311,347.897,459.163,349.198,458.605,350.804z"/>
			<path style="fill:#0E263F;" d="M484.305,350.804c-0.558,1.606-2.31,2.908-3.916,2.908c-1.607,0-2.457-1.302-1.901-2.908
				c0.557-1.605,2.31-2.906,3.917-2.906C484.011,347.897,484.861,349.198,484.305,350.804z"/>
			<path style="fill:#0E263F;" d="M413.32,443.357c-1.658,4.778-5.809,8.651-9.272,8.651c-3.465,0-4.93-3.873-3.273-8.651
				c1.654-4.778,5.807-8.65,9.27-8.65C413.509,434.707,414.976,438.579,413.32,443.357z"/>
			<polygon style="fill:#0E263F;" points="404.516,452.009 401.886,452.009 407.883,434.707 410.514,434.707 			"/>
			<path style="fill:#0E263F;" d="M411.156,443.357c-1.655,4.778-5.807,8.651-9.271,8.651c-3.463,0-4.93-3.873-3.273-8.651
				c1.656-4.778,5.807-8.65,9.271-8.65S412.813,438.579,411.156,443.357z"/>
			<path style="fill:#74E2CF;" d="M434.071,308.311l50.007-1.027c0,0,11.612-2.336,16.732,10.703l0,0l-48.485,0.695
				c0,0-2.872-4.575-7.934-7.301C439.328,308.657,434.071,308.311,434.071,308.311z"/>
			<polygon style="fill:#0E263F;" points="458.605,350.804 452.789,350.804 470.949,298.406 476.765,298.406 			"/>
			<polygon style="fill:#0E263F;" points="484.305,350.804 478.487,350.804 496.647,298.406 502.464,298.406 			"/>
			<polygon style="fill:#0E263F;" points="489.153,334.561 484.897,334.561 516.726,245.599 520.985,245.599 			"/>
			<polygon style="fill:#0E263F;" points="463.455,334.561 459.198,334.561 491.028,245.599 495.286,245.599 			"/>
			<polygon style="fill:#0E263F;" points="520.676,246.489 490.721,246.489 491.028,245.599 520.985,245.599 			"/>
			<polygon style="fill:#0E263F;" points="522.447,241.378 492.49,241.378 491.028,245.599 520.985,245.599 			"/>
			<path style="fill:#FFAF99;" d="M519.891,238.778c-2.342,5.969-8.789,7.497-12.476,9.733c-2.503,1.525-4.876,4.089-4.949,1.896
				c-0.128-3.93,6.864-6.483,6.864-6.483s1-0.776,0.027-2.547l0.973-1.479L519.891,238.778z"/>
			<path style="fill:#0E263F;" d="M630.979,122.646c-0.462,2.681,1.148,5.193,3.594,5.614c2.446,0.422,4.804-1.409,5.266-4.088
				c0.461-2.681-1.148-5.194-3.595-5.617C633.797,118.134,631.441,119.965,630.979,122.646z"/>
			<path style="fill:#0E263F;" d="M620.055,120.593c-0.462,2.68,1.146,5.192,3.594,5.612c2.445,0.424,4.804-1.407,5.265-4.088
				c0.462-2.68-1.146-5.194-3.595-5.617C622.871,116.08,620.516,117.912,620.055,120.593z"/>
			<line style="fill:none;stroke:#0E263F;stroke-miterlimit:10;" x1="620.777" y1="118.896" x2="611.912" y2="116.737"/>
			<path style="fill:none;stroke:#0E263F;stroke-miterlimit:10;" d="M632.646,121.324c0,0-1.571-2.488-5.955-0.713"/>
			<path style="fill:#EDA11B;" d="M644.648,155.796c7.866,4.624,9.848,18.033,13.791,44.162c0,0-20.664,12.08-21.533,9.847
				c-0.867-2.235-6.367-24.358-6.367-24.358"/>
			<path style="fill:#FFAF99;" d="M689.448,186.374c-0.739-6.286,1.882-11.136,3.961-14.275c1.411-2.13,2.241-5.219,3.289-3.164
				c1.889,3.68-1.901,9.15-1.901,9.15s2.379,0.68,3.76-0.192c5.363-3.384,8.831-9.364,10.401-11.708
				c1.678-2.496,2.265,1.314-0.803,8.323c-2.383,7.42-4.933,10.295-9.369,13.799c-1.558,1.229-8.183,7.668-13.336,11.704
				c-5.151,4.036-3.407-6.339-3.407-6.339S689.536,187.393,689.448,186.374z"/>
			<path style="fill:#F29A86;" d="M657.313,200.608c-1.126,0.65-9.844,11.865-11.393,25.481l-3.518-17.631L657.313,200.608z"/>
			<polygon style="opacity:0.3;fill:#C1C1C1;" points="588.788,196.034 593.086,184.173 590.938,211.864 604.852,219.068 
				588.788,215.953 584.898,230.979 			"/>
			<polygon style="opacity:0.3;fill:#C1C1C1;" points="642.402,208.458 645.92,204.123 642.337,184.804 649.857,204.739 			"/>
			<g>
				<g>
					<g>
						<path style="fill:#161616;" d="M636.102,196.519c0,1.1-0.9,2-2,2h-20.17c-1.1,0-2-0.9-2-2v-12.033c0-1.1,0.9-2,2-2h20.17
							c1.1,0,2,0.9,2,2V196.519z"/>
					</g>
					<g>
						<path style="fill:#0E263F;" d="M640.45,196.519c0,1.1-0.9,2-2,2h-20.171c-1.1,0-2-0.9-2-2v-12.033c0-1.1,0.9-2,2-2h20.171
							c1.1,0,2,0.9,2,2V196.519z"/>
					</g>
					<path style="fill:#161616;" d="M634.469,190.503c0,3.255-2.339,5.896-5.227,5.896c-2.887,0-5.227-2.64-5.227-5.896
						c0-3.257,2.34-5.896,5.227-5.896C632.13,184.606,634.469,187.246,634.469,190.503z"/>
					<path style="fill:#161616;" d="M633.878,190.503c0,3.255-2.34,5.896-5.227,5.896c-2.887,0-5.226-2.64-5.226-5.896
						c0-3.257,2.339-5.896,5.226-5.896C631.538,184.606,633.878,187.246,633.878,190.503z"/>
					<path style="opacity:0.5;fill:#EDEDED;" d="M631.908,188.724c0,1.516-6.513,1.516-6.513,0c0-1.516,1.457-2.747,3.256-2.747
						C630.45,185.977,631.908,187.208,631.908,188.724z"/>
					<path style="opacity:0.5;fill:#EDEDED;" d="M628.643,194.661c-0.072,0.283-0.582,0.398-1.138,0.257
						c-0.556-0.142-0.946-0.487-0.876-0.77c0.073-0.283,0.582-0.398,1.138-0.257C628.322,194.032,628.715,194.377,628.643,194.661z"
						/>
					<rect x="636.729" y="184.018" style="fill:#161616;" width="1.814" height="1.097"/>
					<path style="fill:#FFA300;" d="M636.248,184.566c0,0.237-0.195,0.431-0.432,0.431c-0.238,0-0.43-0.194-0.43-0.431
						c0-0.237,0.191-0.431,0.43-0.431C636.053,184.135,636.248,184.329,636.248,184.566z"/>
				</g>
				<rect x="618.467" y="183.86" style="fill:#161616;" width="2.884" height="1.858"/>
				<polygon style="fill:#161616;" points="635.816,182.485 624.016,182.485 624.805,177.165 626.231,175.558 635.816,175.558 
					635.816,180.815 635.037,181.254 				"/>
				<rect x="627.01" y="176.24" style="fill:#EDEDED;" width="8.027" height="3.987"/>
				
					<line style="fill:none;stroke:#D6D6D6;stroke-width:0.25;stroke-miterlimit:10;" x1="627.01" y1="176.81" x2="635.037" y2="176.81"/>
				
					<line style="fill:none;stroke:#D6D6D6;stroke-width:0.25;stroke-miterlimit:10;" x1="627.01" y1="177.359" x2="635.037" y2="177.359"/>
				
					<line style="fill:none;stroke:#D6D6D6;stroke-width:0.25;stroke-miterlimit:10;" x1="627.01" y1="177.909" x2="635.037" y2="177.909"/>
				
					<line style="fill:none;stroke:#D6D6D6;stroke-width:0.25;stroke-miterlimit:10;" x1="627.01" y1="178.459" x2="635.037" y2="178.459"/>
				
					<line style="fill:none;stroke:#D6D6D6;stroke-width:0.25;stroke-miterlimit:10;" x1="627.01" y1="179.009" x2="635.037" y2="179.009"/>
				
					<line style="fill:none;stroke:#D6D6D6;stroke-width:0.25;stroke-miterlimit:10;" x1="627.01" y1="179.559" x2="635.037" y2="179.559"/>
			</g>
			<path style="fill:none;stroke:#0E263F;stroke-linecap:round;stroke-linejoin:round;stroke-miterlimit:10;" d="M614.122,186.628
				c0,0,0.805-20.296-8.395-38.938"/>
			<path style="fill:none;stroke:#0E263F;stroke-linecap:round;stroke-linejoin:round;stroke-miterlimit:10;" d="M638.528,184.606
				c0,0,1.078-20.173-10.913-36.307"/>
			<path style="opacity:0.3;fill:#C1C1C1;" d="M611.872,184.804c0,0-2.545,10.025-3.224,12.264
				c-0.682,2.239-0.035,4.976,2.416,5.992c2.451,1.017,19.522,1.017,22.911,1.017c3.388,0,6.174-2.042,5.315-6.814
				C638.434,192.492,611.872,184.804,611.872,184.804z"/>
		</g>
	</g>
	<g>
		<path style="opacity:0.5;fill:#C1C1C1;" d="M338.975,446.416c0,7.244-57.811,13.117-129.123,13.117
			c-71.313,0-129.123-5.873-129.123-13.117c0-7.245,57.81-13.118,129.123-13.118C281.164,433.298,338.975,439.171,338.975,446.416z"
			/>
		<g>
			<path style="fill:#6D3429;" d="M153.101,92.881c-0.24,9.571,0.727,18.467,2.668,26.391c0,0,13.598,7.705,16.136,8.702
				c0,0-10.564,4.547-29.152,4.547c-20.525,0-22.997-5.224-22.997-5.224l16.895-7.129c0,0,1.203-1.104-0.543-7.398
				c-1.924-6.191,5.415-20.422,5.415-20.422L153.101,92.881z"/>
			<path style="fill:#4FC9B8;" d="M159.342,120.945l-2.957-0.929l-11.114,11.099l-8.776-11.843l-20.216,7.663
				c0,0,2.19,19.738,0.166,60.929c-1.117,22.679-1.09,44.602-1.09,44.602l-0.125,14.887c21.728,1.524,46.062,2.175,67.792,0.409
				l-0.953-9.009c0,0-0.622-3.096-0.622-4.485c0.003-8.038-1.035-34.536-0.489-56.018c0.641-25.267-11.61-52.294-11.61-52.294
				L159.342,120.945z"/>
			<polygon style="fill:#6D3429;" points="158.403,120.65 154.718,117.769 145.27,131.115 138.536,118.279 132.81,120.668 
				144.211,139.524 138.242,242.193 155.571,241.825 147.123,139.537 			"/>
			<polygon style="fill:#4F1C15;" points="132.81,120.668 145.83,138.898 158.403,120.65 147.123,139.537 155.098,236.105 
				153.721,236.105 146.468,144.36 145.186,144.226 140.151,236.105 138.597,236.105 144.363,140.157 			"/>
			<path style="fill:#4F1C15;" d="M136.578,113.859c3.488,0.082,10.492-9.401,11.213-11.613c0.717-2.209,2.471-6.65,2.471-6.65
				s0.635,10.778-4.014,15.729c-4.241,4.515-9.388,4.605-9.388,4.605S136.68,115.084,136.578,113.859z"/>
			<path style="fill:#6D3429;" d="M159.445,82.693c-0.836,10.831-10.291,18.935-21.124,18.101
				c-10.835-0.835-19.127-11.358-18.293-22.193c0.18-2.336,0.283-6.14,1.196-8.163c3.308-7.345,11.62-9.527,20.118-8.873
				C152.176,62.4,160.278,71.86,159.445,82.693z"/>
			<path style="fill:#6D3429;" d="M120.252,83.063c-0.182,10.387,4.173,28.039,13.301,30.299
				c4.283,1.063,15.285-5.625,16.387-12.809c1.102-7.182,2.253-15.029,2.253-15.029"/>
			<path style="fill:#0E263F;" d="M122.02,91.262c0.139,1.437,1.121,2.519,2.19,2.417c1.068-0.106,1.818-1.356,1.681-2.793
				c-0.141-1.442-1.115-2.522-2.182-2.42C122.634,88.574,121.882,89.821,122.02,91.262z"/>
			<path style="fill:#0E263F;" d="M136.376,89.796c0.047,1.442,0.956,2.585,2.026,2.551c1.077-0.038,1.903-1.239,1.854-2.682
				c-0.049-1.446-0.955-2.585-2.026-2.549C137.159,87.15,136.327,88.353,136.376,89.796z"/>
			<path style="fill:#FFFFFF;" d="M126.681,103.826c0.352-0.777,10.081-1.183,10.871-0.779c0.792,0.402-2.802,3.724-5.346,3.879
				C130.227,107.051,126.265,104.754,126.681,103.826z"/>
			<path style="fill:#F29A86;" d="M126.491,99.7c0.356,0.175,2.278,0.884,2.901,0.783c0.626-0.104,3.265-1.106,3.416-1.417
				C132.952,98.756,125.813,99.362,126.491,99.7z"/>
			<g>
				<path style="fill:#0E263F;" d="M134.795,82.408c-0.01,0.013,0.084-0.129,0.249-0.297c0.164-0.175,0.418-0.399,0.766-0.61
					c0.344-0.219,0.79-0.403,1.295-0.528c0.508-0.112,1.075-0.146,1.631-0.072c0.56,0.055,1.087,0.246,1.555,0.448
					c0.219,0.125,0.431,0.247,0.632,0.362c0.193,0.124,0.351,0.271,0.506,0.391c0.31,0.246,0.501,0.509,0.655,0.669
					c0.14,0.174,0.22,0.273,0.22,0.273c0.174,0.217,0.14,0.535-0.078,0.709c-0.155,0.124-0.361,0.142-0.53,0.063l-0.063-0.029
					c0,0-0.103-0.048-0.282-0.133c-0.174-0.086-0.405-0.239-0.709-0.344c-0.285-0.143-0.627-0.257-0.98-0.379
					c-0.183-0.034-0.363-0.093-0.55-0.133c-0.19-0.012-0.376-0.064-0.566-0.071c-0.378-0.023-0.757-0.013-1.115,0.034
					c-0.358,0.042-0.703,0.101-1,0.174c-0.302,0.063-0.555,0.139-0.736,0.186c-0.183,0.052-0.268,0.063-0.279,0.074
					c-0.217,0.171-0.531,0.135-0.703-0.082C134.542,82.894,134.579,82.579,134.795,82.408z"/>
			</g>
			<g>
				<path style="fill:#0E263F;" d="M125.103,84.385c0,0-0.022-0.006-0.064-0.019c-0.052-0.023-0.099-0.019-0.117-0.004
					c-0.005,0.008-0.11,0.002-0.193,0.001c-0.094,0.003-0.201,0.007-0.317,0.012c-0.473,0.014-1.115,0.12-1.673,0.317
					c-0.568,0.197-1.019,0.505-1.344,0.794c-0.145,0.157-0.294,0.282-0.37,0.396c-0.086,0.105-0.149,0.164-0.149,0.164
					c-0.103,0.256-0.394,0.38-0.65,0.277c-0.256-0.103-0.38-0.394-0.277-0.65c0.021,0.011,0.028-0.44,0.388-1.012
					c0.083-0.145,0.204-0.281,0.321-0.437c0.121-0.153,0.287-0.271,0.443-0.415c0.339-0.243,0.733-0.462,1.146-0.581
					c0.824-0.282,1.666-0.243,2.277-0.139c0.155,0.027,0.294,0.071,0.421,0.108c0.134,0.048,0.221,0.072,0.364,0.137
					c0.136,0.059,0.204,0.109,0.226,0.132c0.034,0.027,0.052,0.042,0.052,0.042c0.218,0.176,0.252,0.496,0.076,0.714
					c-0.132,0.163-0.345,0.224-0.535,0.169L125.103,84.385z"/>
			</g>
			<path style="fill:#102B51;" d="M149.817,90.763c-0.014-5.424-1.256-11.088-3.728-13.89c-2.899-3.292-20.107-1.949-22.357-12.226
				c0,0,17.981-8.559,28.75-0.66c10.773,7.898,6.399,22.093,6.399,22.093s-0.659-2.653-3.516-1.95
				c-1.799,0.437-2.814,2.825-3.627,5.386C151.408,89.41,149.817,91.635,149.817,90.763z"/>
			<path style="fill:#C7DAEA;" d="M146.269,93.107c-6.142,7.713-11.22,2.82-17.107,4.246c-3.813,0.925-5.211,1.959-6.714,1.192
				c0,0,1.797,14.065,11.449,16.2c8.4,1.859,14.778-9.705,16.01-12.757c0.651-1.615-3.066-1.991-2.307-4.739
				C148.481,94.073,147.239,91.885,146.269,93.107z"/>
			<polygon style="fill:#C7DAEA;" points="155.119,85.139 146.269,93.107 147.901,95.157 155.462,85.776 			"/>
			<polygon style="fill:#C7DAEA;" points="153.816,96.07 149.572,102.747 148.739,100.641 153.213,94.998 			"/>
			<path style="fill:#C1C1C1;" d="M134.138,100.772c0,0-3.063,1.037-7.228,0.229"/>
			<path style="fill:#C1C1C1;" d="M142.432,102.97c0,0-3.359,2.306-10.711,2.04"/>
			<path style="fill:#C1C1C1;" d="M136.648,109.549c0,0-4.403,1.058-7.828-0.277"/>
			<path style="fill:#4F1C15;" d="M149.436,90.276c0,0-3.341,2.021-4.372,3.276c-1.03,1.256-2.179,3.518-9.739,3.838
				c0,0,6.656,2.094,9.491-1.439C147.651,92.418,149.436,90.276,149.436,90.276z"/>
			<path style="fill:#4F1C15;" d="M125.835,98.315c-1.787,0.649-2.91,0.582-3.387,0.229l-0.391-1.365
				C122.058,97.18,122.43,98.793,125.835,98.315z"/>
			<polygon style="fill:#4F1C15;" points="152.485,95.879 148.358,99.722 149.055,100.327 			"/>
			<path style="fill:#4F1C15;" d="M159.317,90.438c-0.732,3.459-3.784,7.724-6.276,6.177c-0.481-0.3-0.741-1.128-0.823-2.219
				c-0.043-0.59,1.073-1.346,1.129-2.049c0.056-0.702-0.948-1.352-0.804-2.082c0.553-2.81,1.711-5.506,3.122-5.68
				C158.697,84.216,160.048,86.981,159.317,90.438z"/>
			<path style="fill:#6D3429;" d="M149.914,289.883c0.308,3.702,1.434,11.314,7.067,40.951c0.725,3.806,3.411,4.991,3.229,9.263
				c-0.528,12.383,13.09,65.054,12.297,71.017c-2.23,16.76-2.045,26.276-2.045,26.276s3.667,0.842,8.785,1.201
				c4.781,0.338,8.194-0.891,8.194-0.891s0.329-2.976-2.959-19.071c-2.259-11.053,2.968-44.153,1.486-73.751
				c-3.924-18.541-0.569-66.201-5.799-82.213c0,0-8.546-9.845-18.426-9.984c-10.072-0.145-22.551-0.266-31.862-0.183
				c-5.692,0.059-11.333,10.611-13.389,10.863c-0.363,9.638-0.382,29.896,0.346,66.724c0.105,5.261,2.192,4.24,2.55,9.44
				c0.224,3.311-0.09,2.17,0.389,5.396c2.546,17.15,5.362,42.57,6.115,62.849c0.492,13.237-0.167,22.039-0.214,26.016
				c0,0,2.698,5.995,8.38,5.832c4.273-0.126,8.763-3.345,10.289-5.395c-0.309-5.709-2.033-13.555-2.199-18.193
				c-0.676-18.801-0.774-26.435,0.722-41.758c1.362-13.961,2.29-22.921,0.612-32.345c-1.137-18.213,3.463-52.047,3.463-52.047
				L149.914,289.883z"/>
			<path style="fill:#0E263F;" d="M170.04,425.077c-0.202,6.766-6.375,9.104-6.375,13.305c0,0.996-0.192,4.903,0.391,5.699
				c1.741,2.385,5.89,2.677,9.307,2.666c4.914-0.007,9.968-0.364,13.76-1.857c6.339-2.501-0.067-14.398-0.417-20.063
				C186.403,420.055,170.231,418.309,170.04,425.077z"/>
			<path style="fill:#EDEDED;stroke:#EDEDED;stroke-miterlimit:10;" d="M189.873,439.102c0,0-5.54,2.961-15.507,2.961
				c-10.561,0-10.701-3.681-10.701-3.681v8.11c0,1.268,4.772,2.868,12.322,2.868c5.482,0,9.436-1.238,11.816-2.514
				c2.069-1.111,2.069-2.733,2.069-2.733V439.102z"/>
			<path style="fill:#4F1C15;" d="M185.16,339.725c-3.471,3.022-13.51,6.321-24.963,3.703v-2.563l24.679-3.663L185.16,339.725z"/>
			<path style="fill:none;stroke:#FFFFFF;stroke-width:0.5;stroke-linecap:round;stroke-linejoin:round;stroke-miterlimit:10;" d="
				M181.332,428.086c0,0-4.429-1.188-8.855,0.357"/>
			<path style="fill:none;stroke:#FFFFFF;stroke-width:0.5;stroke-linecap:round;stroke-linejoin:round;stroke-miterlimit:10;" d="
				M183.294,431.236c0,0-7.817-1.604-13.55,0.222"/>
			<path style="fill:none;stroke:#FFFFFF;stroke-width:0.5;stroke-linecap:round;stroke-linejoin:round;stroke-miterlimit:10;" d="
				M180.023,433.676c0,0-4.992-0.202-9.092,0.402"/>
			<path style="fill:#0E263F;" d="M145.222,429.142c0.013,2.057,0,0-0.113,1.432c-0.074,0.987,1.083,7.371,1.804,11.262
				c0.328,1.76-0.262,3.066-1.661,3.161c-6.451,0.46-23.701,1.741-27.734,1.813c-4.9,0.097-14.128-0.071-15.03-1.966
				c-1.343-2.842-0.646-8.174,9.088-11.347c4.87-1.58,10.53-7.067,10.552-6.006c0,0,1.12-9.197,4.889-8.509
				c4.219,0.769,5.293,7.118,10.688,6.542C143.727,424.88,145.186,425.548,145.222,429.142z"/>
			<path style="fill:#EDEDED;stroke:#EDEDED;stroke-miterlimit:10;" d="M122.067,442.739c2.533,1.518,5.821,2.08,9.821-1.747
				c4-3.827,14.576-1.57,14.355-2.817l0,0c0.228,1.303,0.464,2.58,0.668,3.66c0.328,1.76-0.262,3.066-1.661,3.161
				c-6.451,0.46-23.701,1.741-27.734,1.813c-4.9,0.097-14.128-0.071-15.03-1.966c-0.56-1.185-0.758-2.811-0.095-4.523
				C102.221,442.399,119.632,441.278,122.067,442.739z"/>
			<path style="fill:#4F1C15;" d="M143.787,343.83c-5.196,2.675-19.011,2.251-24.251-0.758l-0.107-2.909l23.955,0.284
				L143.787,343.83z"/>
			
				<path style="fill:#FFFFFF;stroke:#FFFFFF;stroke-width:0.5;stroke-linecap:round;stroke-linejoin:round;stroke-miterlimit:10;" d="
				M135.458,432.478c0,1.711,1.375,3.094,3.075,3.094c1.698,0,3.075-1.383,3.075-3.094c0-1.71-1.377-3.097-3.075-3.097
				C136.833,429.382,135.458,430.769,135.458,432.478z"/>
			
				<path style="fill:#FFFFFF;stroke:#FFFFFF;stroke-width:0.5;stroke-linecap:round;stroke-linejoin:round;stroke-miterlimit:10;" d="
				M126.763,430.399c0,0-2.448-2.451-5.112-3.143"/>
			
				<path style="fill:#FFFFFF;stroke:#FFFFFF;stroke-width:0.5;stroke-linecap:round;stroke-linejoin:round;stroke-miterlimit:10;" d="
				M121.65,432.478c0,0-2.042-2.061-3.931-2.518"/>
			
				<path style="fill:#FFFFFF;stroke:#FFFFFF;stroke-width:0.5;stroke-linecap:round;stroke-linejoin:round;stroke-miterlimit:10;" d="
				M116.851,433.786c0,0-1.159-1.182-2.495-1.625"/>
			<path style="fill:#EDEDED;" d="M64.04,188.057c0,0-1.98-1.961-2.65-2.619c-0.669-0.66,8.381-7.765,9.513-6.617
				c1.132,1.148,2.983,2.655,2.983,2.655L64.04,188.057z"/>
			<path style="fill:#4FC9B8;" d="M116.278,126.935c-3.896,1.14-9.729,5.896-14.289,33.106c-0.799,4.763-1.634,14.415-2.407,25.521
				c-1.741,24.994-30.775,7.7-31.182,7.309c-3.591-3.447-2.729-2.622-3.591-3.447c-2.661-2.545,8.282-10.773,11.256-8.467
				c0.813,0.632,1.473,0.762,4.743,3.412c0.273,0.222,14.708,11.428,25.749,13.12c6.019,0.923,11.028-0.982,12.185-9.037
				c2.12-14.777,3.861-26.904,3.861-26.904l-0.377-26.183L116.278,126.935"/>
			<path style="fill:#0E263F;" d="M115.229,247.352c0,0-0.686,10.61-0.718,11.102c-0.927,14.338-1.49,28.699-1.704,43.07
				c-0.145,9.683-1.369,27.76,1.733,33.828c3.102,6.068,20.227,8.599,28.641,5.979c3.568-1.112,3.355-4.432,3.355-4.432
				c1.326-24.596,3.611-39.219,3.611-39.219s1.909,24.488,3.695,38.994c0.949,7.709,24.796,4.031,32.856-0.957
				c3.872-2.395,3.7-7.074,3.7-7.074c-3.105-31.087-4.291-66.131-7.378-80.882l-26.538,0.566l-0.912-6.503l-17.329,0.368
				l-0.59,6.294L115.229,247.352z"/>
			<path style="opacity:0.5;fill:#C1C1C1;" d="M134.287,188.274c-1.3,3.985-1.79,9.212,0.563,10.661
				c2.355,1.45,13.821,2.027,15.191,1.811c1.372-0.216,5.487-0.013,5.487-0.013l-5.37-1.315c0,0-8.626-0.654-10.783-1.059
				c-2.486-0.466-4.695-1.645-5.039-2.945C133.636,192.773,134.287,188.274,134.287,188.274z"/>
			<polygon style="fill:#0E263F;" points="155.098,236.105 138.597,236.105 138.242,242.193 155.622,242.191 			"/>
			<path style="fill:#102B51;" d="M128.11,70.653c-0.37,2.769-5.709,10.518-8.095,11.446c0,0-4.529-12.357,3.717-17.453l3.501,2.048
				L128.11,70.653z"/>
			<path style="fill:#4FC9B8;" d="M67.62,192.122c0,0,24.877,15.47,29.732,17.808c4.856,2.337,12.049,4.855,13.839,1.619
				c0.86-1.557,8.392-18.892,9.056-19.427c0.663-0.535-20.128-6.527-21.062-3.441c-0.933,3.086-0.034,4.705-0.034,4.705
				l-18.343-9.017L67.62,192.122z"/>
			<path style="fill:#6D3429;" d="M161.427,192.776c-3.938-5.327-10.78-5.125-15.058-6.368c-2.908-0.854-5.964-2.775-5.449-0.567
				c0.925,3.955,8.587,4.628,8.587,4.628"/>
			<polygon style="fill:#1F324F;" points="65.415,197.296 94.113,209.95 127.311,209.95 160.197,220.432 137.959,143.253 
				105.072,132.772 71.874,132.772 43.176,120.117 			"/>
			<path style="fill:#6D3429;" d="M149.507,190.47C149.507,190.47,151.778,190.979,149.507,190.47
				c-3.216-0.721-6.731-1.687-9.58-2.413c-3.429-0.975-0.747,7.805,1.484,10.094c2.705,2.776,9.733,3.147,13.463,3.807
				c2.343,0.415,10.919,2.94,17.009,4.676c6.089,1.735,6.378-9.103,6.378-9.103s-16.171-3.914-16.834-4.755l-5.898-2.561
				l-3.463,0.944L149.507,190.47z"/>
			<path style="fill:#4FC9B8;" d="M168.078,125.6v23.545l20.087,43.643c0,0-11.855,0.121-24.995-1.56v16.364
				c19.852,1.259,37.224,7.855,44.417,1.201c3.055-2.826,2.496-8.014,2.517-8.811c0.133-5.132-3.764-26.756-15.105-45.438
				C186.884,141.177,179.504,128.41,168.078,125.6z"/>
			<path style="fill:#6D3429;" d="M48.252,137.736c4.144-3.154,7.921,5.238,6.572,11.682c-1.349,6.444,0.41,12.545,0.41,12.545
				S43.176,151.846,48.252,137.736z"/>
			<polygon style="fill:#C1C1C1;" points="163.17,191.227 177.556,187.981 178.904,175.178 171.926,157.505 180.975,177.165 
				180.975,192.652 			"/>
			<polygon style="fill:#C1C1C1;" points="153.721,219.423 163.17,224.81 158.445,204.445 163.17,205.119 162.45,208.895 
				178.261,211.719 181.376,228.99 180.975,209.794 163.17,207.592 163.17,204.139 154.874,201.958 160.197,220.432 
				153.721,218.368 			"/>
			<polygon style="fill:#4F1C15;" points="162.328,193.217 160.733,203.498 163.17,204.139 163.17,193.509 			"/>
			<polygon style="fill:#161616;" points="71.874,132.772 94.113,209.95 127.311,209.95 106.36,133.183 			"/>
			<polygon style="fill:#161616;" points="114.898,252.471 116.249,249.852 139.253,253.268 140.151,236.105 138.597,236.105 
				137.814,247.873 115.229,247.352 			"/>
			<polygon style="fill:#161616;" points="153.721,236.105 155.528,254.347 183.021,248.822 183.021,247.762 156.483,248.328 
				155.098,236.105 			"/>
			<path style="fill:#161616;" d="M150.147,297.681l0.997-23.373l4.384,23.373l0.094,36.779c0,0,0.369,1.168,2.653,6.33
				c0,0-3.465,0.17-4.063-2.934C153.613,334.754,150.147,297.681,150.147,297.681z"/>
			<path style="fill:#161616;" d="M54.528,142.413c2.184,5.837,1.554,8.083,1.194,11.051c-0.359,2.968-0.488,8.499-0.488,8.499
				s-1.183-4.186-0.916-7.689C54.585,150.771,55.243,144.395,54.528,142.413z"/>
			<path style="fill:#161616;" d="M139.774,195.51c2.535,6.867,6.223,6.598,9.1,6.867c2.876,0.27,6-0.419,6-0.419
				s-8.608-0.66-11.804-2.625C140.23,197.587,139.774,195.51,139.774,195.51z"/>
		</g>
		<g>
			<path style="fill:#44290E;" d="M263.308,132.677c0,0-37.318-0.35-39.483,2.922c-2.165,3.27-10.956,92.703-8.384,98.133
				c2.572,5.431,45.875,1.875,45.875,1.875s36.13-82.072,36.999-88.153C299.685,137.856,296.697,136.142,263.308,132.677z"/>
			<g>
				<path style="fill:#161616;" d="M404.48,99.158c0,1.1-0.9,2-2,2h-20.75c-1.099,0-1.999-0.9-1.999-2v-9.777c0-1.1,0.9-2,1.999-2
					h20.75c1.1,0,2,0.9,2,2V99.158z"/>
			</g>
			<polyline style="fill:none;stroke:#FFA300;stroke-linecap:round;stroke-linejoin:round;stroke-miterlimit:10;" points="
				404.48,97.182 404.48,101.299 379.731,101.299 379.731,97.182 			"/>
			<polygon style="fill:#6D3429;" points="354.231,139.182 358.391,136.232 358.391,145.932 352.981,146.849 			"/>
			<path style="fill:#6D3429;" d="M301.731,159.433c0,0,12.25,25.274,14.667,29.667c8.809-10.68,32.5-38.741,32.5-38.741
				l5.333,4.573c0,0-28.5,44.252-31.5,47.626c-3,3.374-5.333,1.194-10.667-1.341s-22.037-25.398-22.037-25.398L301.731,159.433z"/>
			<path style="fill:#6D3429;" d="M225.566,143.763c0,0-20.863,18.804-24.756,21.963c-4.14-13.21-13.579-49.05-13.579-49.05
				l-8.609,3.153c0,0,9.745,51.726,11.254,55.98c1.509,4.256,4.491,3.114,10.387,2.773c5.896-0.341,29.977-15.234,29.977-15.234
				L225.566,143.763z"/>
			<path style="fill:#6D3429;" d="M229.976,405.089c0,0,0.96,8.441,0,12.28c-0.961,3.836-1.151,7.484-0.961,11.515
				c0.192,4.029,13.326,1.592,14.179-0.561c0.853-2.148,1.367-6.334,0.983-9.029c-0.384-2.692,0.129-14.205,0.129-14.205H229.976z"
				/>
			<path style="fill:#6D3429;" d="M270.172,404.249c2.143,20.363,0.448,20.691,1.387,25.38c0.743,3.72,25.828,4.013,21.784,1.518
				c-4.234-2.616-4.151-4.518-4.151-4.518s0.125-10.982,0.312-19.236L270.172,404.249z"/>
			<polygon style="fill:none;" points="294.217,430.939 294.217,430.939 294.217,430.939 			"/>
			<path style="fill:#0E263F;" d="M269.705,432.067C269.705,432.067,269.786,430.329,269.705,432.067
				c-0.044,0.968-0.846,7.413-1.553,11.221c-0.322,1.723,0.255,3,1.623,3.092c6.315,0.45,23.194,1.706,27.142,1.775
				c4.795,0.092,13.823-0.069,14.706-1.927c1.317-2.78,0.634-7.996-8.89-11.099c-4.769-1.553-11.899-7.569-12.804-7.521
				c-1.961,0.103-5.184,2.741-9.905,2.363c-5.644-0.452-6.115-1.782-8.424-1.786C269.677,428.185,270.025,428.563,269.705,432.067z"
				/>
			
				<path style="fill:#0E263F;stroke:#0E263F;stroke-width:0.5;stroke-linecap:round;stroke-linejoin:round;stroke-miterlimit:10;" d="
				M292.463,444.17c-2.478,1.483-5.699,2.034-9.611-1.706c-3.914-3.747-14.262-1.539-14.048-2.758l0,0
				c-0.221,1.274-0.455,2.522-0.652,3.582c-0.322,1.723,0.255,3,1.623,3.092c6.315,0.45,23.194,1.706,27.142,1.775
				c4.795,0.092,13.823-0.069,14.706-1.927c0.548-1.16,0.741-2.752,0.095-4.426c-1.89-5.796-7.756-6.361-9.458,1.647
				C297.723,443.609,293.654,443.456,292.463,444.17z"/>
			<path style="fill:#0E263F;" d="M244.046,426.175c0.195,6.619,6.241,8.912,6.241,13.023c0,0.976,0.187,4.8-0.381,5.581
				c-1.705,2.335-5.767,2.621-9.112,2.611c-4.81-0.011-9.761-0.358-13.469-1.821c-6.21-2.445,0.065-14.095,0.408-19.642
				C227.905,422.756,243.732,422.148,244.046,426.175z"/>
			
				<path style="fill:#0E263F;stroke:#0E263F;stroke-width:0.5;stroke-linecap:round;stroke-linejoin:round;stroke-miterlimit:10;" d="
				M224.628,439.901c0,0,1.35,0.723,3.918,1.447c2.196-3.927,5.56-6.758,10.449-6.758c3.756,0,7.675,3.695,8.531,7.132
				c2.704-1.065,2.762-2.524,2.762-2.524v7.938c0,1.241-4.672,2.81-12.063,2.81c-5.369,0-9.236-1.214-11.57-2.462
				c-2.027-1.084-2.027-2.674-2.027-2.674V439.901z"/>
			<path style="fill:none;stroke:#FFFFFF;stroke-linecap:round;stroke-linejoin:round;stroke-miterlimit:10;" d="M287.092,433.911
				c0,0,2.665-3.051,6.814-3.938"/>
			<path style="fill:none;stroke:#FFFFFF;stroke-linecap:round;stroke-linejoin:round;stroke-miterlimit:10;" d="M292.287,433.911
				c0,0,1.841-1.818,4.362-2.177"/>
			<path style="fill:none;stroke:#FFFFFF;stroke-linecap:round;stroke-linejoin:round;stroke-miterlimit:10;" d="M296.649,434.981
				c0,0,0.657-1.007,2.72-1.474"/>
			<path style="fill:none;stroke:#FFFFFF;stroke-linecap:round;stroke-linejoin:round;stroke-miterlimit:10;" d="M233.622,431.742
				c0,0,3.936-1.887,7.676-0.12"/>
			<path style="fill:none;stroke:#FFFFFF;stroke-linecap:round;stroke-linejoin:round;stroke-miterlimit:10;" d="M231.799,429.94
				c0,0,4.989-3.169,10.938,0"/>
			<path style="fill:none;stroke:#FFFFFF;stroke-linecap:round;stroke-linejoin:round;stroke-miterlimit:10;" d="M233.622,427.061
				c0,0,2.724-1.234,6.716,0"/>
			<path style="fill:#0E263F;" d="M262.685,276.483c-1.037,16.72-4.908,39.95-10.266,74.776
				c-5.285,34.351-6.028,64.851-6.028,64.851s-4.25,0.949-9.518,1.152c-4.922,0.196-10.154-1.226-10.154-1.226
				s-2.31-48.786,1.535-68.811c3.617-18.834-7.151-63.597,0.485-98.319c0,0,9.011-8.982,19.166-8.863
				c10.357,0.121,28.139-1.444,37.367,0.915c9.032,2.31,11.443,5.147,11.359,9.749c1.378,21.869,0.186,55.344-2.257,94.264
				c-2.107,33.569-3.049,63.077-3.169,73.097l-20.934,0.444c0,0-2.64-53.236-0.691-74.05c0.857-9.161-2.822-28.387-3.982-44.113
				c-0.991-13.437-2.913-22.883-2.913-22.883V276.483z"/>
			<path style="fill:#FFA300;" d="M216.707,151.718c4.227-10.7,14.481-12.794,21.364-10.914l10.893-1.972l24.211-0.317
				c0,0,3.457,1.876,9.461,4.4c0,0,6.304-0.961,11.131,0.658c10.203,3.424,12.762,14.535,12.762,14.535l-11.682,14.048l4.214,66.741
				l-2.331,2.863l-0.124,7.977c0,0-15.479,2.26-35.296,1.879c-19.817-0.381-32.571-2.709-32.571-2.709l-0.621-8.863l-2.386-1.576
				l2.424-63.596L216.707,151.718z"/>
			<path style="opacity:0.5;fill:#9B9B9B;" d="M225.733,238.468c20.524,2.859,60.393,1.811,73.329,0.43l-2.331,2.863
				c0,0-12.172,1.662-35.611,1.662c-23.438,0-33.001-3.379-33.001-3.379L225.733,238.468z"/>
			<path style="opacity:0.5;fill:#9B9B9B;" d="M228.74,248.907c10.658,5.377,51.001,4.13,67.892,1.801l-0.024-0.971
				c0,0-21.362,1.067-34.332,1.067C249.306,250.805,228.74,248.907,228.74,248.907z"/>
			<path style="fill:#6D3429;" d="M253.181,111.96c1.149,8.799,0.607,15.878-1.192,23.222c0,0,0.451,2.792-13.918,5.622
				c0,0,8.395,6.723,25.623,6.723c19.024,0,22.927-4.162,22.927-4.162l-16.355-6.901c0,0-1.866-1.229-0.867-7.198
				c1.174-5.894-6.97-18.299-6.97-18.299L253.181,111.96z"/>
			<path style="fill:#6D3429;" d="M244.786,107.378c3.798,9.323,14.437,13.803,23.762,10.004
				c9.328-3.801,13.671-15.433,9.872-24.761c-0.819-2.012-1.986-5.34-3.364-6.866c-4.995-5.548-12.949-5.124-20.267-2.144
				C245.465,87.41,240.987,98.051,244.786,107.378z"/>
			<path style="fill:#6D3429;" d="M279.485,96.623c3.097,9.116,4.244,25.929-3.174,30.504c-3.48,2.149-15.083-0.645-18.085-6.673
				c-3.003-6.028-6.237-12.628-6.237-12.628"/>
			<path style="fill:#0E263F;" d="M280.241,104.36c0.285,1.307-0.277,2.54-1.25,2.752c-0.972,0.208-1.988-0.682-2.272-1.989
				c-0.284-1.313,0.271-2.542,1.241-2.753C278.94,102.161,279.956,103.049,280.241,104.36z"/>
			<path style="fill:#0E263F;" d="M267.113,107.657c0.366,1.287-0.113,2.554-1.068,2.825c-0.961,0.271-2.03-0.556-2.396-1.843
				c-0.366-1.29,0.112-2.553,1.069-2.824C265.673,105.543,266.748,106.369,267.113,107.657z"/>
			<path style="fill:#FFFFFF;" d="M279.681,116.768c-0.53-0.588-9.233,1.806-9.815,2.386c-0.585,0.578,3.525,2.495,5.815,1.912
				C277.462,120.616,280.309,117.469,279.681,116.768z"/>
			<path style="fill:#F29A86;" d="M278.682,113.071c-0.266,0.256-1.762,1.424-2.341,1.511c-0.582,0.085-3.193-0.054-3.415-0.284
				C272.712,114.064,279.183,112.582,278.682,113.071z"/>
			<g>
				<path style="fill:#0E263F;" d="M265.168,101.882c-0.014-0.007-0.091,0.012-0.267,0.022c-0.172,0.015-0.416,0.024-0.696,0.06
					c-0.28,0.023-0.595,0.072-0.917,0.138c-0.323,0.062-0.653,0.157-0.976,0.281c-0.162,0.06-0.309,0.156-0.472,0.218
					c-0.151,0.085-0.291,0.186-0.442,0.266c-0.274,0.202-0.544,0.394-0.756,0.597c-0.24,0.174-0.403,0.371-0.534,0.493
					c-0.138,0.123-0.216,0.193-0.216,0.193l-0.053,0.047c-0.208,0.187-0.528,0.168-0.714-0.04c-0.129-0.144-0.159-0.341-0.098-0.511
					c0,0,0.041-0.111,0.113-0.307c0.089-0.188,0.181-0.478,0.384-0.787c0.181-0.32,0.459-0.658,0.793-1
					c0.358-0.316,0.774-0.64,1.258-0.85c0.475-0.226,0.992-0.357,1.478-0.401c0.487-0.031,0.938,0.009,1.307,0.108
					c0.37,0.094,0.659,0.225,0.855,0.337c0.193,0.106,0.318,0.209,0.304,0.2c0.258,0.097,0.389,0.385,0.292,0.644
					C265.715,101.849,265.427,101.979,265.168,101.882z"/>
			</g>
			<g>
				<path style="fill:#0E263F;" d="M274.876,98.5c0,0,0.012-0.019,0.033-0.052c0.011-0.025,0.058-0.092,0.164-0.185
					c0.113-0.103,0.182-0.148,0.288-0.23c0.102-0.07,0.213-0.151,0.343-0.221c0.514-0.271,1.251-0.55,2.068-0.534
					c0.403-0.014,0.819,0.07,1.192,0.192c0.181,0.085,0.364,0.142,0.516,0.247c0.149,0.107,0.296,0.194,0.411,0.301
					c0.484,0.412,0.613,0.817,0.629,0.801c0.176,0.213,0.147,0.528-0.066,0.704c-0.212,0.177-0.528,0.147-0.704-0.065
					c0,0-0.074-0.032-0.18-0.098c-0.1-0.076-0.267-0.14-0.436-0.233c-0.364-0.153-0.836-0.29-1.383-0.305
					c-0.538-0.016-1.129,0.065-1.547,0.181c-0.103,0.027-0.198,0.052-0.281,0.074c-0.071,0.022-0.163,0.057-0.167,0.047
					c-0.017-0.012-0.06-0.004-0.1,0.031c-0.034,0.022-0.052,0.034-0.052,0.034l-0.02,0.013c-0.236,0.153-0.551,0.086-0.704-0.15
					C274.768,98.878,274.773,98.663,274.876,98.5z"/>
			</g>
			<path style="fill:#102B51;" d="M255.565,111.778c-1.521-4.791-2.026-10.142-0.636-13.313c1.628-3.726,17.196-7.406,16.277-17.113
				c0,0-18.291-2.472-25.563,7.545c-7.275,10.018,0.598,21.31,0.598,21.31s-0.169-2.528,2.551-2.715
				c1.712-0.123,3.283,1.698,4.725,3.728C253.779,111.034,255.811,112.548,255.565,111.778z"/>
			<path style="fill:#C7DAEA;" d="M259.359,112.844c7.603,5.071,10.701-0.683,16.301-1.089c3.626-0.262,5.152,0.256,6.263-0.846
				c0,0,2.39,12.923-5.525,17.535c-6.891,4.016-15.788-4.388-17.739-6.733c-1.031-1.242,2.143-2.625,0.696-4.835
				C257.68,114.322,258.158,112.04,259.359,112.844z"/>
			<polygon style="fill:#C7DAEA;" points="249.296,108.313 259.359,112.844 258.499,115.114 249.174,108.973 			"/>
			<polygon style="fill:#C7DAEA;" points="253.537,117.593 259.17,122.286 259.31,120.192 253.766,116.477 			"/>
			<path style="fill:#C1C1C1;" d="M272.234,116.179c0,0,2.997,0.051,6.444-1.84"/>
			<path style="fill:#C1C1C1;" d="M265.536,120.465c0,0,3.616,1.084,10.03-1.229"/>
			<path style="fill:#C1C1C1;" d="M272.501,124.637c0,0,4.184-0.312,6.83-2.459"/>
			<path style="fill:#4F1C15;" d="M255.764,111.241c0,0,3.521,0.839,4.785,1.655c1.265,0.817,2.917,2.489,9.682,0.635
				c0,0-5.284,3.729-8.784,1.413C257.946,112.626,255.764,111.241,255.764,111.241z"/>
			<path style="fill:#4F1C15;" d="M278.869,111.664c1.761,0.068,2.733-0.31,3.055-0.755l-0.042-1.314
				C281.881,109.595,282.009,111.123,278.869,111.664z"/>
			<polygon style="fill:#4F1C15;" points="254.656,117.049 259.386,119.273 258.943,120.004 			"/>
			<path style="fill:#4F1C15;" d="M247.088,114.179c1.624,2.845,5.524,5.746,7.287,3.676c1.415-1.671-3.129-10.367-5.717-9.876
				C245.876,108.51,245.466,111.332,247.088,114.179z"/>
			<path style="fill:#4F1C15;" d="M256.184,111.414c0,0-3.036-9.166-0.188-12.945c2.851-3.784,11.941-4.166,13.441-11.088
				c0,0,1.881,3.749,7.887,4.864c0,0,1.423,1.237,2.368,4.889c0,0-0.625-3.436-1.963-6.254c0,0-5.09-0.633-8.255-3.406
				c0,0-4.087,4.566-11.131,8.049c-3.392,1.668-6.06,3.697-3.006,15.511L256.184,111.414z"/>
			<path style="fill:#102B51;" d="M268.855,86.828c0,0,2.488,3.585,8.714,4.699c0,0,3.887,8.038,4.665,22.489
				c0,0,8.502-3.539,8.031-12.217c-0.435-8.027-7.678-10.98-7.678-10.98s3.013-8.848-1.095-13.314
				c-4.199-4.563-10.586-3.008-14.744-0.796c0,0-4.654-4.489-10.946-2.999c-6.779,1.606-8.296,8.677-6.826,15.004"/>
			<path style="opacity:0.5;fill:#9B9B9B;" d="M245.022,148.29c1.14,20.579-4.767,38.968-17.87,52.928"/>
			<path style="fill:#44290E;" d="M238.071,140.804c0,0,4.914,23.752-10.433,53.92c0,0-2.436,3.697-1.704,7.834
				c0,0,11.36-12.941,15.802-30.223c5.189-20.187,2.799-31.352,2.323-32.615C243.582,138.457,238.984,139.034,238.071,140.804z"/>
			<path style="opacity:0.5;fill:#9B9B9B;" d="M283.425,142.112c-1.032,28.598,2.657,44.994,10.78,55.025L283.425,142.112z"/>
			<path style="fill:#44290E;" d="M283.425,142.112c0,0,2.577-0.824,5.759,0.554c0,0,2.922,39.016,6.976,50.271
				c0.983,2.731,0.472,7.47,0.472,7.47s-7.206-8.148-10.101-22.916C283.378,161.405,283.425,142.112,283.425,142.112z"/>
			<path style="fill:#6D3429;" d="M349.731,153.182c0,0,1.25-7.25,7.75-8.75l0.91-8.199c0,0,3.59,3.449,2.09,10.199
				c-1.475,6.639-6.134,8.325-7.414,10.306L349.731,153.182z"/>
			
				<line style="fill:none;stroke:#161616;stroke-width:2;stroke-linecap:round;stroke-miterlimit:10;" x1="343.898" y1="154.901" x2="390.897" y2="100.093"/>
			<path style="fill:#6D3429;" d="M345.801,154.029c1.96-2.323,1.431-5.098,3.681-7.848s5.806-13.498,5.861-7.25
				c0.055,6.248-3.611,13.25-3.611,13.25L345.801,154.029z"/>
			<path style="fill:#6D3429;" d="M187.231,116.676c-0.25-2.744,3.5-6.178,4-12.336c0,0,4.75-14.26,4.5-15.959
				c-0.25-1.699-2.25-0.496-4.5,6.277s-2.708,8.19-3.958,7.731c-0.708-0.26-0.715-6.895-0.786-11.395
				c-0.059-3.757-0.339-5.313-1.589-5.313s-1.47,1.491-1.666,6.78c-0.194,5.222,0.154,7.454-0.048,8.837
				c-0.202,1.383-6.702,3.188-6.702,6.66c0,3.473,1.261,7.225,2.141,11.87c0.88,4.646,5.109,2.457,5.109,2.457L187.231,116.676z"/>
			<path style="fill:#0E263F;" d="M287.506,142.112c-0.775,4.569-10.957,37.821-26.616,56.695s-31.221,23.132-34.565,24.128
				c-2.094,0.746-2.572,6.996-0.333,8.746c2.239,1.75,26.348-9.024,40.854-27.396c18.636-23.604,23.439-44.354,26.922-60.712
				C293.768,143.573,289.78,140.793,287.506,142.112z"/>
			<path style="fill:#0E263F;" d="M238.071,218.084l1.41-8.152c0,0,14.074-8,21.162-18.5l8.538-4.62l6.908,4.283l0.21,10.122
				c0,0-11.067,13.715-25.317,21.965l-10.75,1.5l-2.16-5.5"/>
			<path style="fill:none;stroke:#FFF7EB;stroke-width:0.5;stroke-linecap:round;stroke-miterlimit:10;" d="M241.565,211.516
				c0,0,13.576-6.957,20.496-18.104"/>
			<polygon style="fill:#FFF7EB;" points="244.325,213.369 242.638,213.369 243.481,210.338 243.481,210.338 			"/>
		</g>
	</g>
</g>
</svg>
